<svg version="1.2" xmlns="http://www.w3.org/2000/svg" viewBox="0 0 1000 1000" width="1000" height="1000">
	<title>Gcc Logo Vector-svg</title>
	<style>
		.s0 { fill: #0044a5 } 
	</style>
	<g id="Layer">
		<path id="Layer" class="s0" d="m319.1 458.6c-8.7-0.1-35.5 4.2-35.5 43 2.8 39.1 27.1 42.8 46.6 40.5 19.7-5.4 17.8-22.8 17.8-22.8h-34.8l15.7-26.8c0 0 25.2 0 50.9 0 8.2-59.4 64.7-63.6 64.7-63.6 0 0 59.1 0 76.9 0-28.5 13.5-36.7 33.3-36.7 33.3 0 0-30.9 0-37 0-6.2 0-31.7 8-31.7 37 0.7 34 30.1 36.7 30.1 36.7 0 0 22.9 0 37.7 0 14.8 25.8 37.6 33.6 37.6 33.6 0 0-27.3 0-71.7 0-45.7-3.3-60-33-64.1-43.9-30.8 72.6-129.4 52.9-137.2-16.8-3.2-29.7 11.6-69.5 59.5-79.4 53.1-7.5 73.6 36.2 73.6 36.2l-33.3 14.1c-6.3-18.7-20.3-21-29.1-21.1zm235.6 3.9c-8.8 1-27.1 7.2-31.2 33.3 0 40.6 32.1 39.9 32.1 39.9h102.7v12h-10.6v11.4h11.6v-11.6h11.6v-11.6h22.9v10.9h-11.8v12.5h11.8v10.8h-57.3v-11.9h-12.5v11c0 0-53 0-72.4 0-17.7-2.1-69.6-18.6-63.8-78.8 8-57.1 64.8-61.6 64.8-61.6h53.2v33.4c0 0-42.6 0.3-51.1 0.3zm139.1 84.7h11.8v11.8h-11.8zm11.8-11.8h11.9v11.8h-11.9zm23.2 0h11.8v11.9h-11.8zm-23.2 23.6h11.9v11.9h-11.9zm11.4-11.9h11.8v11.9h-11.8zm23.2 0h11.8v11.8h-11.8z"/>
	</g>
</svg>